<?xml version="1.0" standalone="no"?><!DOCTYPE svg PUBLIC "-//W3C//DTD SVG 1.1//EN" "http://www.w3.org/Graphics/SVG/1.1/DTD/svg11.dtd"><svg t="1617686944020" class="icon" viewBox="0 0 1024 1024" version="1.1" xmlns="http://www.w3.org/2000/svg" p-id="4985" xmlns:xlink="http://www.w3.org/1999/xlink" width="200" height="200"><defs><style type="text/css"></style></defs><path d="M409.6 385.706667c0.017067 16.605867 6.007467 30.8224 17.92 42.666666 11.1104 11.332267 25.053867 17.032533 41.813333 17.066667 16.418133-0.068267 30.5152-5.614933 42.24-16.64l0.853334-0.853333 0.426666 0.426666c11.1104 11.332267 25.053867 17.032533 41.813334 17.066667 16.4352-0.068267 30.498133-5.614933 42.24-16.64l0.8704-0.853333c11.025067-11.741867 16.5888-25.821867 16.657066-42.24a16.298667 16.298667 0 0 0-5.12-11.946667 16.366933 16.366933 0 0 0-11.946666-5.12 16.298667 16.298667 0 0 0-11.946667 5.12 16.298667 16.298667 0 0 0-5.12 11.946667c0.068267 7.048533-2.065067 13.1584-6.4 18.346666-0.324267 0.273067-0.580267 0.5632-0.853333 0.853334a27.306667 27.306667 0 0 1-18.346667 6.4c-7.133867 0.034133-13.124267-2.235733-17.92-6.826667-4.7104-4.795733-7.304533-9.6256-7.68-14.506667a16.298667 16.298667 0 0 0-5.12-11.946666 16.3328 16.3328 0 0 0-11.946667-5.12 16.2304 16.2304 0 0 0-11.946666 5.12 16.384 16.384 0 0 0-5.12 11.946666c-0.324267 4.744533-2.4576 9.437867-6.4 14.08a13.4144 13.4144 0 0 0-0.853334 0.853334 27.272533 27.272533 0 0 1-18.346666 6.4c-7.133867 0.034133-13.1072-2.235733-17.92-6.826667a25.6 25.6 0 0 1-7.68-18.773333 16.298667 16.298667 0 0 0-5.12-11.946667 16.298667 16.298667 0 0 0-11.946667-5.12 16.2304 16.2304 0 0 0-11.946667 5.12 16.213333 16.213333 0 0 0-5.154133 11.946667zM682.666667 341.333333v256c0 47.240533-16.759467 87.313067-50.346667 120.32C599.313067 751.240533 559.240533 768 512 768c-47.223467 0-87.6032-16.759467-121.173333-50.346667C357.8368 684.6464 341.333333 644.573867 341.333333 597.333333V341.333333l85.333334-85.333333h170.666666l85.333334 85.333333z" p-id="4986"></path><path d="M512.034133 955.7504c-27.904 0-52.343467-10.308267-72.6528-30.600533a103.662933 103.662933 0 0 1-8.465066-9.506134 105.5232 105.5232 0 0 1-12.765867 5.7344c-25.258667 10.666667-51.5584 10.6496-77.448533-0.256a40.277333 40.277333 0 0 0-4.7616-2.0992 19.285333 19.285333 0 0 1-2.4576-1.041066c-22.4256-11.5712-38.621867-29.474133-48.128-53.213867a156.3648 156.3648 0 0 1-3.293867-10.205867 149.230933 149.230933 0 0 1-27.9552-0.529066c-21.691733-2.781867-40.533333-12.1856-56.285867-27.938134-19.831467-19.882667-29.5424-44.4416-28.8768-73.045333 0-4.130133 0.256-8.2432 0.785067-12.305067a109.021867 109.021867 0 0 1-13.141333-5.12c-26.299733-10.478933-45.294933-29.218133-55.586134-55.278933-10.8544-25.7536-10.205867-52.497067 2.0992-79.121067 1.3824-3.2256 2.9184-6.365867 4.625067-9.386666a127.368533 127.368533 0 0 1-8.874667-8.0896C78.626133 564.258133 68.266667 540.040533 68.266667 512c0-27.904 10.2912-52.343467 30.600533-72.6528 3.242667-3.242667 6.587733-6.212267 10.018133-8.8576a124.552533 124.552533 0 0 1-5.393066-12.3392c-11.229867-25.019733-11.5712-51.421867-0.6144-77.4656 10.8544-25.821867 29.764267-44.424533 56.183466-55.261867 3.4304-1.467733 6.912-2.730667 10.4448-3.771733a114.653867 114.653867 0 0 1-0.546133-11.144533c0-28.4672 10.001067-52.923733 29.7472-72.6528 19.729067-19.729067 44.168533-29.7472 72.6528-29.7472 4.590933 0 9.079467 0.273067 13.499733 0.8192 1.041067-3.959467 2.321067-7.953067 3.822934-11.946667 11.1104-27.136 29.934933-45.568 56.149333-55.227733 25.173333-10.5984 51.6608-10.615467 78.097067 0.221866 3.089067 1.416533 6.058667 2.935467 8.9088 4.539734 2.304-2.935467 4.829867-5.768533 7.543466-8.4992C459.8272 78.216533 484.1984 68.266667 512 68.266667c27.921067 0 52.0704 10.001067 71.799467 29.7472 3.191467 3.1744 6.109867 6.485333 8.823466 9.915733 4.164267-2.3552 8.584533-4.420267 13.2096-6.144 25.5488-10.0864 51.694933-9.745067 77.482667 1.092267 25.770667 10.820267 44.3392 29.3888 55.176533 55.1936 1.501867 3.498667 2.781867 7.048533 3.84 10.5984a110.592 110.592 0 0 1 11.1616-0.5632c28.142933 0.6656 52.189867 10.973867 71.799467 30.600533s29.917867 43.349333 30.600533 70.519467c0 4.983467-0.256 9.8816-0.750933 14.6432 4.078933 1.092267 8.174933 2.440533 12.219733 4.061866 25.736533 11.8272 43.8272 30.600533 54.596267 56.1664 10.9056 25.2416 10.939733 51.268267 0 77.243734-1.4848 3.464533-3.072 6.843733-4.744533 10.1376 3.003733 2.4064 5.9392 5.0176 8.789333 7.8848C945.783467 459.810133 955.733333 484.181333 955.733333 512c0 27.921067-10.018133 52.087467-29.7472 71.799467-3.242667 3.259733-6.673067 6.331733-10.222933 9.181866 2.218667 3.771733 4.2496 7.765333 6.0928 11.997867 10.427733 26.4192 10.103467 52.565333-0.750933 78.336-10.786133 25.685333-29.013333 44.2368-54.1696 55.108267-3.9424 1.5872-7.799467 2.901333-11.605334 3.976533 0.3584 3.669333 0.546133 7.3728 0.546134 11.076267 0 27.921067-10.001067 52.0704-29.730134 71.799466a104.533333 104.533333 0 0 1-54.920533 29.422934 126.549333 126.549333 0 0 1-30.993067 0.512 124.074667 124.074667 0 0 1-4.164266 12.117333c-9.6256 22.715733-24.849067 39.594667-45.3632 50.551467a110.967467 110.967467 0 0 1-9.489067 4.215466c-25.992533 10.683733-52.6336 11.025067-78.8992 0.9216a124.3648 124.3648 0 0 1-11.1104-5.410133 104.8576 104.8576 0 0 1-7.970133 8.106667c-18.961067 19.677867-43.178667 30.037333-71.202134 30.037333z m-75.946666-81.066667a17.015467 17.015467 0 0 1 15.5136 9.9328 58.026667 58.026667 0 0 0 11.912533 16.384c13.8752 13.8752 29.7472 20.616533 48.5376 20.616534 18.670933 0 34.2016-6.673067 47.4624-20.394667a66.730667 66.730667 0 0 0 12.9024-15.530667 16.981333 16.981333 0 0 1 11.741867-8.174933 16.896 16.896 0 0 1 13.858133 3.6352c4.9152 4.0448 10.7008 7.492267 17.186133 10.274133 17.527467 6.7584 35.191467 6.519467 53.3504-0.955733 2.594133-1.041067 4.693333-1.962667 6.587734-2.901333 13.192533-7.048533 22.971733-17.988267 29.422933-33.1776 2.747733-6.877867 4.6592-14.114133 5.597867-21.1456a17.083733 17.083733 0 0 1 21.572266-14.199467c9.898667 2.816 23.159467 3.447467 34.1504 2.013867 13.277867-2.577067 25.463467-9.147733 36.181334-19.8656 13.277867-13.277867 19.729067-28.859733 19.729066-47.6672 0-6.894933-0.9216-13.653333-2.747733-20.0704a17.066667 17.066667 0 0 1 15.172267-21.691734 66.048 66.048 0 0 0 19.626666-4.829866c16.622933-7.185067 28.4672-19.285333 35.84-36.8128 7.3728-17.5104 7.594667-34.525867 0.699734-52.002134a66.525867 66.525867 0 0 0-11.246934-17.8176 17.066667 17.066667 0 0 1 4.1472-26.282666 88.951467 88.951467 0 0 0 18.5856-14.318934C915.131733 546.389333 921.6 530.807467 921.6 512c0-18.909867-6.519467-34.850133-19.950933-48.708267a58.248533 58.248533 0 0 0-14.984534-11.1104 17.134933 17.134933 0 0 1-8.874666-10.888533 17.152 17.152 0 0 1 2.304-13.858133c3.959467-5.956267 7.4752-12.475733 10.427733-19.421867 7.253333-17.237333 7.287467-33.774933 0.034133-50.5344-7.509333-17.851733-19.490133-30.293333-36.6592-38.212267a66.423467 66.423467 0 0 0-19.575466-4.437333 17.1008 17.1008 0 0 1-15.445334-21.162667c1.928533-7.714133 2.901333-15.803733 2.901334-24.046933-0.443733-17.954133-7.202133-33.399467-20.599467-46.813867s-29.1328-20.155733-48.059733-20.616533c-6.485333 0-13.226667 0.938667-19.6608 2.7648a17.066667 17.066667 0 0 1-21.691734-15.172267 57.821867 57.821867 0 0 0-4.6592-18.414933c-7.424-17.629867-19.5072-29.713067-37.000533-37.0688-17.5104-7.3728-34.525867-7.611733-51.985067-0.7168a55.586133 55.586133 0 0 0-18.602666 11.195733 17.015467 17.015467 0 0 1-26.811734-4.932266 68.4544 68.4544 0 0 0-13.021866-17.749334C546.389333 108.8512 530.7904 102.4 512 102.4c-18.8928 0-34.850133 6.519467-48.708267 19.950933-4.608 4.608-8.328533 9.8304-10.871466 15.36a17.015467 17.015467 0 0 1-26.282667 6.058667 78.677333 78.677333 0 0 0-16.8448-10.513067c-17.3056-7.082667-34.5088-7.099733-51.933867 0.238934-17.800533 6.587733-29.6448 18.261333-36.898133 35.959466a75.605333 75.605333 0 0 0-4.744533 21.111467 17.1008 17.1008 0 0 1-22.4256 15.0528 68.864 68.864 0 0 0-21.896534-3.396267c-19.3536 0-35.2256 6.4512-48.520533 19.746134-13.294933 13.294933-19.746133 29.166933-19.746133 48.520533 0 6.912 0.9216 13.653333 2.7648 20.053333a17.066667 17.066667 0 0 1-15.172267 21.7088 57.634133 57.634133 0 0 0-18.414933 4.625067c-18.261333 7.492267-30.583467 19.5584-37.922134 37.0176-7.253333 17.237333-7.031467 34.013867 0.699734 51.268267 3.2256 8.516267 6.7584 15.121067 10.888533 20.616533a17.066667 17.066667 0 0 1-6.5024 25.736533 57.6 57.6 0 0 0-16.401067 11.9296C109.141333 477.354667 102.4 493.2096 102.4 512c0 18.670933 6.673067 34.184533 20.3776 47.4112 5.563733 5.546667 11.400533 10.171733 17.5616 13.943467a17.066667 17.066667 0 0 1 3.7376 25.975466 56.661333 56.661333 0 0 0-9.7792 15.7696c-8.413867 18.2272-8.891733 35.208533-1.672533 52.343467 6.946133 17.578667 19.182933 29.525333 37.546666 36.864 7.7312 3.584 14.916267 5.666133 22.254934 6.6048a17.1008 17.1008 0 0 1 13.9264 22.698667 58.606933 58.606933 0 0 0-3.259734 19.831466c-0.443733 19.575467 5.7344 35.328 18.909867 48.5376 10.410667 10.410667 22.254933 16.366933 36.181333 18.141867 10.990933 1.211733 23.466667 0.887467 33.245867-1.3824a17.134933 17.134933 0 0 1 20.701867 14.011733c0.989867 6.365867 2.730667 13.056 5.1712 19.899734a65.501867 65.501867 0 0 0 30.8736 34.474666c2.030933 0.733867 4.3008 1.723733 6.877866 3.0208 16.2816 6.8096 33.143467 6.792533 50.5344-0.494933a66.730667 66.730667 0 0 0 19.575467-11.025067 17.032533 17.032533 0 0 1 10.922667-3.9424zM512 785.066667c-51.694933 0-96.529067-18.619733-133.239467-55.3472C342.596267 693.5552 324.266667 649.0112 324.266667 597.333333V341.333333a17.066667 17.066667 0 0 1 34.133333 0v256c0 42.9056 14.557867 78.301867 44.4928 108.253867C433.408 736.1024 469.0944 750.933333 512 750.933333c42.8544 0 78.2336-14.7968 108.151467-45.243733C650.8032 675.566933 665.6 640.187733 665.6 597.333333V341.333333a17.066667 17.066667 0 1 1 34.133333 0v256c0 51.746133-18.653867 96.341333-55.4496 132.488534C608.341333 766.4128 563.746133 785.066667 512 785.066667z" p-id="4987"></path><path d="M682.666667 972.8a34.133333 34.133333 0 0 1-34.133334-34.133333v-35.84a34.133333 34.133333 0 0 1 68.266667 0V938.666667a34.133333 34.133333 0 0 1-34.133333 34.133333z m-341.333334 0a34.133333 34.133333 0 0 1-34.133333-34.133333v-35.84a34.133333 34.133333 0 0 1 68.266667 0V938.666667a34.133333 34.133333 0 0 1-34.133334 34.133333z m426.666667-512a33.9968 33.9968 0 0 1-24.132267-10.001067L583.202133 290.133333h-142.3872l-160.682666 160.6656a34.133333 34.133333 0 1 1-48.264534-48.264533l170.666667-170.666667A34.133333 34.133333 0 0 1 426.666667 221.866667h170.666666a34.133333 34.133333 0 0 1 24.132267 10.001066l170.666667 170.666667A34.133333 34.133333 0 0 1 768 460.8z" p-id="4988"></path></svg>