<?xml version="1.0" standalone="no"?><!DOCTYPE svg PUBLIC "-//W3C//DTD SVG 1.1//EN" "http://www.w3.org/Graphics/SVG/1.1/DTD/svg11.dtd"><svg t="1629007278357" class="icon" viewBox="0 0 1024 1024" version="1.1" xmlns="http://www.w3.org/2000/svg" p-id="3808" xmlns:xlink="http://www.w3.org/1999/xlink" width="200" height="200"><defs><style type="text/css"></style></defs><path d="M512 17.067C238.933 17.067 17.067 238.933 17.067 512S238.933 1006.933 512 1006.933 1006.933 785.067 1006.933 512 785.067 17.067 512 17.067z m0 955.733C257.707 972.8 51.2 766.293 51.2 512S257.707 51.2 512 51.2 972.8 257.707 972.8 512 766.293 972.8 512 972.8z" fill="#707070" p-id="3809"></path><path d="M512 597.333c-109.227 0-213.333 52.907-276.48 141.654-5.12 6.826-3.413 18.773 3.413 23.893 6.827 5.12 18.774 3.413 23.894-3.413 58.026-80.214 150.186-128 249.173-128 102.4 0 197.973 51.2 254.293 134.826 3.414 5.12 8.534 6.827 13.654 6.827 3.413 0 6.826-1.707 10.24-3.413 8.533-5.12 10.24-15.36 5.12-23.894-63.147-92.16-168.96-148.48-283.307-148.48zM264.533 401.067c6.827 6.826 17.067 6.826 23.894 0l35.84-35.84 35.84 35.84c6.826 6.826 17.066 6.826 23.893 0s6.827-17.067 0-23.894l-35.84-35.84 35.84-35.84c6.827-6.826 6.827-17.066 0-23.893-6.827-6.827-17.067-6.827-23.893 0l-35.84 35.84-35.84-35.84c-6.827-6.827-17.067-6.827-23.894 0-6.826 6.827-6.826 17.067 0 23.893l35.84 35.84-35.84 35.84c-6.826 6.827-6.826 17.067 0 23.894z m341.334 0c6.826 6.826 17.066 6.826 23.893 0l35.84-35.84 35.84 35.84c6.827 6.826 17.067 6.826 23.893 0s6.827-17.067 0-23.894l-35.84-35.84 35.84-35.84c6.827-6.826 6.827-17.066 0-23.893-6.826-6.827-17.066-6.827-23.893 0l-35.84 35.84-35.84-35.84c-6.827-6.827-17.067-6.827-23.893 0-6.827 6.827-6.827 17.067 0 23.893l35.84 35.84-35.84 35.84c-6.827 6.827-6.827 17.067 0 23.894z" fill="#707070" p-id="3810"></path></svg>